<svg xmlns="http://www.w3.org/2000/svg" viewBox="0 0 1200 1200"><defs><style>.cls-1{fill:#fefefe;}.cls-2{fill:#050505;}.cls-3{fill:#060606;}.cls-4{fill:#070707;}.cls-5{fill:#0d0d0d;}.cls-6{fill:#0e0e0e;}.cls-7{fill:#0a0a0a;}.cls-8{fill:#fdfdfd;}.cls-9{fill:#f3f3f3;}.cls-10{fill:#f4f4f4;}.cls-11{fill:#f7f7f7;}.cls-12{fill:#010101;}.cls-13{fill:#030303;}.cls-14{fill:#040404;}.cls-15{fill:#fcfcfc;}</style></defs><g id="Layer_2" data-name="Layer 2"><g id="Layer_1-2" data-name="Layer 1"><path class="cls-1" d="M0,0H1200V1200H0ZM895,465.7c-3.41-166.8-140.25-293.88-301-290.61C429.38,178.43,297.64,316.92,305.11,483,312.25,641.79,445,771.62,612.3,764.73,774.57,758.05,897.46,623.18,895,465.7ZM600.51,851.29c1,.8,1.4.94,1.46,1.17,5.43,20.77,10.92,41.52,16.19,62.33,2.08,8.2,1.88,8,10.35,8.33,4.76.19,6-1.45,5.82-6-.69-13.79-1.26-27.6-1.4-41.4-.18-16.25.06-32.49.27-48.74.07-5.36-3.08-5.5-7.17-5.53-4.31,0-5.4,1.78-5.26,5.76.34,9.64.4,19.29.47,28.94s0,19.15,0,28.73a5.28,5.28,0,0,1-1.89-2.91c-4.12-16-8.31-31.91-12.28-47.91-2.75-11.07-2.62-10.87-14-11.16-4.72-.12-6.05,1.42-5.89,6,.56,15,.75,29.94,1.09,44.91.33,14.48.58,29,1,43.44.17,5.48,1.26,6.08,7.36,5.82,4.41-.18,5.47-2.42,5.27-6.55-.66-13.63-1.09-27.28-1.43-40.92C600.35,867.67,600.51,859.76,600.51,851.29Zm-78.39,29.39c5.7-4.23,11.06-8.75,11.56-15.89a144.61,144.61,0,0,0-.16-26.81c-1.08-9.35-8.29-14.73-17.77-15-5.66-.14-11.34.19-17-.09-4.31-.22-5.52,1.75-5.48,5.64.26,29,.37,58,.67,87,.1,9,.3,8.87,9.43,8.53,3.14-.12,4-1.44,3.93-4.31q-.46-16.47-.7-32.93c0-1.46.68-2.92,1.05-4.38,1,1.26,2.45,2.36,3,3.8,4,10.94,7.71,22,11.8,32.9.7,1.88,2.65,4.42,4.26,4.6,3.61.42,7.37-.46,12.1-.9C533,908.22,527.64,894.64,522.12,880.68Zm123.06-8h.13c0,15,.08,30-.06,45,0,4.13,1.48,5.68,5.61,5.43,4.82-.3,9.68.11,14.5-.17,14.7-.86,21-7.34,21.45-22.08.23-8.39.21-16.8,0-25.19-.26-10.72-1.32-21.45-1.1-32.15C686,831.93,679,823.42,667.48,823c-6-.2-12,.07-18-.09-3.18-.08-4.4.95-4.37,4.32C645.27,842.4,645.18,857.54,645.18,872.68Zm-86.24-7.25V835.36a7.61,7.61,0,0,1,1.32-.31c4.17,0,8.33,0,12.49,0,6.73,0,6.55,0,7.11-6.79.34-4.08-1.28-5.35-5.11-5.27-7,.15-14,0-21,0-9.19,0-9.21,0-8.92,9.37.43,14.08,1.1,28.14,1.26,42.22.17,14.59-.05,29.2-.31,43.79-.07,3.52,1.06,5.62,4.6,5.55,8.78-.18,17.56-.63,26.34-.91,6.32-.21,3.71-5,4.19-8.13.52-3.49-1.44-4.19-4.48-4.11-5.59.16-11.2.05-17.18.05V877.18c4.07,0,8.08.24,12-.12,1.51-.14,4.16-1.72,4.12-2.54-.16-3-.6-8.29-2-8.67C569.11,864.69,564.31,865.43,558.94,865.43Zm187.93-30.25c4,0,7.4.06,10.86,0,4.88-.11,3.58-3.92,3.71-6.64.12-2.57.54-5.58-3.71-5.55-11.66.07-23.33-.06-35,.13-1.52,0-4.23,1.39-4.3,2.3a29.21,29.21,0,0,0,1,9.75c.14.51,3.84.25,5.86,0,5.88-.61,7.73.54,7.94,5.11.36,7.75,1.06,15.5,1.09,23.26.08,18.36-.09,36.73-.29,55.09,0,3.07.57,4.85,4.09,4.41a28,28,0,0,1,4.49,0c3.26.11,4.72-1,4.67-4.68-.27-20.27-.3-40.56-.39-60.84C746.85,850.23,746.87,843,746.87,835.18Zm-276.46,0c4,0,7.17-.13,10.29,0s4.81-.76,4.49-4.18c-.14-1.49.43-3.2-.13-4.44-.64-1.42-2.16-3.43-3.33-3.45-11.48-.26-23-.18-34.46-.14-2.73,0-4.39,1-4,4.24a71.69,71.69,0,0,1,.06,7.82H458c0,4.6,0,8.72,0,12.85-.1,11.84-.31,23.68-.32,35.52,0,9.81.41,19.63.25,29.44-.16,10.46-.36,10.46,10.18,10.12.94,0,1.88-.19,2.28-.23ZM711,849.83h.36c0-6.47-.12-12.94,0-19.4.18-8.3-1.84-10.2-9.77-8.11a5.75,5.75,0,0,0-3.38,4.14c-.32,7.5-.06,15-.1,22.55q-.2,33.72-.48,67.43c-.06,6.68-.1,6.66,6.64,5.91.4,0,.85.44,1.28.66,4.13,2.18,5.42.18,5.42-3.68ZM656.61,968.21c-1.44,13-3.61,26-4.12,39.09-.52,13.45,10.47,21.18,23.63,17.93,8.53-2.11,14.79-7.49,16.57-15.68,2.93-13.55,4.32-27.44,6.39-41.31H691.6c-1.44,11.78-2.64,23.37-4.4,34.87a29.32,29.32,0,0,1-4.16,11,13.73,13.73,0,0,1-15.9,5.23c-4.89-1.76-7.57-6.19-7.58-12.84a56.23,56.23,0,0,1,.52-6.46c1.24-10.53,2.52-21.06,3.82-31.87Zm50.78,70.71c.73-5.61,1.46-11.21,2.23-17.16,8.87,6.14,16.56,5,22.69-3.08a32,32,0,0,0,6.48-22.53c-.37-4.8-1.67-9.25-6.75-11.33s-9.44.09-13.24,3.33a71.89,71.89,0,0,0-5.81,6.26c-.43-9.65-.43-9.65-5.64-8.84l-6.49,53.35Zm-193.16-66.5c-4.25-2-7.59-4.19-11.24-5.06-8.81-2.09-18.2,3.74-20.76,12.29-2.77,9.27.51,15,10.89,19,.92.36,1.86.69,2.79,1.05,6.69,2.63,8.64,5.47,7.52,11-1.21,5.94-5.5,9.9-11.72,9.1-4.46-.57-8.66-3.1-13.6-5l-2.94,3.74c8,9.6,22.43,10,30.45,1,8.65-9.66,6.06-21.61-5.76-26.55-1.83-.77-3.71-1.43-5.53-2.23-4.19-1.85-6.9-4.63-5.88-9.67.93-4.6,4.66-8.27,9.49-7.87,4.07.33,8,2.11,12.79,3.47Zm74,13.81c-9.55-4.07-17.88-2.48-25.13,3.69-8.21,7-11.65,16.16-9.54,26.84,1.81,9.14,9.9,12,17.41,6.43a89.53,89.53,0,0,0,6.87-6.24c1.07,2.91-3,9.71,5.6,7.67C585,1011.91,586.62,999.23,588.24,986.23Zm30.76,22c7.29-2.16,14-3.8,20.49-6.19,3.89-1.44,5.71-5.09,5.33-9.3s-3.09-7-7.16-7.93a19.26,19.26,0,0,0-7.8-.41c-10.53,2.13-17.73,12.69-17.58,25.25.16,13,10.74,20,22.64,14.58,3.22-1.45,6-4,8.92-6-2.76-3.95-2.79-4-6.65-1.2-4.2,3-8.8,4.18-13.54,1.87S618.84,1012.22,619,1008.28Zm-69.79-18.54c-4.57-5.48-9.78-6.79-16-5-10.25,3-17.39,15.54-15.7,27.67s13.44,17.61,23.86,10.74a62.69,62.69,0,0,0,6.06-5.17l-2.3-3.43c-3,1.86-5.14,3.53-7.54,4.58-5.54,2.43-11.18.28-12.59-5-2-7.75-.52-14.95,5.13-20.83,4-4.19,8.87-4.44,14-1.25.66.4,1.39.69,2.2,1.08Zm51.73,35.1q3.55-29.47,7.07-58.57h-6.68c-2.38,19.64-4.72,39-7.08,58.57Z"/><path class="cls-2" d="M895,465.7c2.51,157.48-120.38,292.35-282.65,299C445,771.62,312.25,641.79,305.11,483c-7.47-166.06,124.27-304.55,288.83-307.89C754.7,171.82,891.54,298.9,895,465.7Zm-577.1,3.19C317.76,626.05,443.35,752.12,600,752.14c155.45,0,282-126.28,282.12-281.49.08-156.11-125.92-282.5-281.93-282.8C444.69,187.55,317.94,313.72,317.85,468.89Z"/><path class="cls-3" d="M600.51,851.29c0,8.47-.16,16.38,0,24.28.34,13.64.77,27.29,1.43,40.92.2,4.13-.86,6.37-5.27,6.55-6.1.26-7.19-.34-7.36-5.82-.45-14.47-.7-29-1-43.44-.34-15-.53-29.95-1.09-44.91-.16-4.57,1.17-6.11,5.89-6,11.36.29,11.23.09,14,11.16,4,16,8.16,31.94,12.28,47.91a5.28,5.28,0,0,0,1.89,2.91c0-9.58.06-19.15,0-28.73s-.13-19.3-.47-28.94c-.14-4,1-5.78,5.26-5.76,4.09,0,7.24.17,7.17,5.53-.21,16.25-.45,32.49-.27,48.74.14,13.8.71,27.61,1.4,41.4.22,4.57-1.06,6.21-5.82,6-8.47-.34-8.27-.13-10.35-8.33C612.89,894,607.4,873.23,602,852.46,601.91,852.23,601.52,852.09,600.51,851.29Z"/><path class="cls-4" d="M522.12,880.68c5.52,14,10.88,27.54,16.67,42.18-4.73.44-8.49,1.32-12.1.9-1.61-.18-3.56-2.72-4.26-4.6-4.09-10.91-7.8-22-11.8-32.9-.52-1.44-2-2.54-3-3.8-.37,1.46-1.07,2.92-1.05,4.38q.21,16.47.7,32.93c.08,2.87-.79,4.19-3.93,4.31-9.13.34-9.33.46-9.43-8.53-.3-29-.41-58-.67-87,0-3.89,1.17-5.86,5.48-5.64,5.65.28,11.33,0,17,.09,9.48.24,16.69,5.62,17.77,15a144.61,144.61,0,0,1,.16,26.81C533.18,871.93,527.82,876.45,522.12,880.68Zm-15.61-11.94c1.91.1,3.23.24,4.54.22,7.9-.13,11-3.29,10.74-11-.09-3.33-.12-6.65-.25-10-.46-11.89-4-13.53-15-11.28Z"/><path class="cls-3" d="M645.18,872.68c0-15.14.09-30.28-.07-45.42,0-3.37,1.19-4.4,4.37-4.32,6,.16,12-.11,18,.09,11.51.39,18.49,8.9,18.25,20.46-.22,10.7.84,21.43,1.1,32.15.19,8.39.21,16.8,0,25.19-.41,14.74-6.75,21.22-21.45,22.08-4.82.28-9.68-.13-14.5.17-4.13.25-5.65-1.3-5.61-5.43.14-15,.06-30,.06-45Zm13.1,37.53c12.13,1.8,15.77-1.77,15.38-12.34-.51-14.09-.16-28.21-.38-42.31a93.37,93.37,0,0,0-1.21-15.78c-.79-4.27-4.87-5.59-11.15-4.62-4.5.69-2.31,4.09-2.38,6.3-.26,8.13-.24,16.26-.25,24.39C658.26,880.69,658.28,895.53,658.28,910.21Z"/><path class="cls-3" d="M558.94,865.43c5.37,0,10.17-.74,14.46.42,1.43.38,1.87,5.62,2,8.67,0,.82-2.61,2.4-4.12,2.54-4,.36-8,.12-12,.12v33.64c6,0,11.59.11,17.18-.05,3-.08,5,.62,4.48,4.11-.48,3.15,2.13,7.92-4.19,8.13-8.78.28-17.56.73-26.34.91-3.54.07-4.67-2-4.6-5.55.26-14.59.48-29.2.31-43.79-.16-14.08-.83-28.14-1.26-42.22-.29-9.37-.27-9.37,8.92-9.37,7,0,14,.11,21,0,3.83-.08,5.45,1.19,5.11,5.27-.56,6.77-.38,6.79-7.11,6.79-4.16,0-8.32,0-12.49,0a7.61,7.61,0,0,0-1.32.31Z"/><path class="cls-2" d="M746.87,835.18c0,7.77,0,15.05,0,22.32.09,20.28.12,40.57.39,60.84.05,3.66-1.41,4.79-4.67,4.68a28,28,0,0,0-4.49,0c-3.52.44-4.12-1.34-4.09-4.41.2-18.36.37-36.73.29-55.09,0-7.76-.73-15.51-1.09-23.26-.21-4.57-2.06-5.72-7.94-5.11-2,.21-5.72.47-5.86,0a29.21,29.21,0,0,1-1-9.75c.07-.91,2.78-2.27,4.3-2.3,11.66-.19,23.33-.06,35-.13,4.25,0,3.83,3,3.71,5.55-.13,2.72,1.17,6.53-3.71,6.64C754.27,835.24,750.82,835.18,746.87,835.18Z"/><path class="cls-2" d="M470.41,835.18v87.59c-.4,0-1.34.19-2.28.23-10.54.34-10.34.34-10.18-10.12.16-9.81-.26-19.63-.25-29.44,0-11.84.22-23.68.32-35.52,0-4.13,0-8.25,0-12.85H443.31a71.69,71.69,0,0,0-.06-7.82c-.37-3.22,1.29-4.23,4-4.24,11.48,0,23-.12,34.46.14,1.17,0,2.69,2,3.33,3.45.56,1.24,0,2.95.13,4.44.32,3.42-1.39,4.35-4.49,4.18S474.44,835.18,470.41,835.18Z"/><path class="cls-3" d="M711,849.83v69.5c0,3.86-1.29,5.86-5.42,3.68-.43-.22-.88-.7-1.28-.66-6.74.75-6.7.77-6.64-5.91q.27-33.71.48-67.43c0-7.52-.22-15,.1-22.55a5.75,5.75,0,0,1,3.38-4.14c7.93-2.09,9.95-.19,9.77,8.11-.15,6.46,0,12.93,0,19.4Z"/><path class="cls-5" d="M656.61,968.21h7.29c-1.3,10.81-2.58,21.34-3.82,31.87a56.23,56.23,0,0,0-.52,6.46c0,6.65,2.69,11.08,7.58,12.84a13.73,13.73,0,0,0,15.9-5.23,29.32,29.32,0,0,0,4.16-11c1.76-11.5,3-23.09,4.4-34.87h7.48c-2.07,13.87-3.46,27.76-6.39,41.31-1.78,8.19-8,13.57-16.57,15.68-13.16,3.25-24.15-4.48-23.63-17.93C653,994.22,655.17,981.21,656.61,968.21Z"/><path class="cls-6" d="M707.39,1038.92h-6.53l6.49-53.35c5.21-.81,5.21-.81,5.64,8.84a71.89,71.89,0,0,1,5.81-6.26c3.8-3.24,8-5.47,13.24-3.33s6.38,6.53,6.75,11.33a32,32,0,0,1-6.48,22.53c-6.13,8.05-13.82,9.22-22.69,3.08C708.85,1027.71,708.12,1033.31,707.39,1038.92Zm26.17-39.43c-2-3.29-3.13-7.34-5.73-8.87-4-2.34-7.55.74-10.25,3.92a29.16,29.16,0,0,0-6.86,17.33c-.4,5.64,1.4,8.55,7,7.88,3.4-.42,7.63-2.39,9.49-5.06C730.1,1010.51,731.31,1005.15,733.56,999.49Z"/><path class="cls-7" d="M514.23,972.42l-3.5,4.25c-4.76-1.36-8.72-3.14-12.79-3.47-4.83-.4-8.56,3.27-9.49,7.87-1,5,1.69,7.82,5.88,9.67,1.82.8,3.7,1.46,5.53,2.23,11.82,4.94,14.41,16.89,5.76,26.55-8,9-22.46,8.6-30.45-1l2.94-3.74c4.94,1.89,9.14,4.42,13.6,5,6.22.8,10.51-3.16,11.72-9.1,1.12-5.49-.83-8.33-7.52-11-.93-.36-1.87-.69-2.79-1.05-10.38-4-13.66-9.74-10.89-19,2.56-8.55,11.95-14.38,20.76-12.29C506.64,968.23,510,970.46,514.23,972.42Z"/><path class="cls-5" d="M588.24,986.23c-1.62,13-3.2,25.68-4.79,38.39-8.64,2-4.53-4.76-5.6-7.67a89.53,89.53,0,0,1-6.87,6.24c-7.51,5.59-15.6,2.71-17.41-6.43-2.11-10.68,1.33-19.84,9.54-26.84C570.36,983.75,578.69,982.16,588.24,986.23Zm-6.24,4.5c-12.44-3.61-25,9.45-21.63,24.51,1,4.63,5.3,6.45,9.21,3.69,2.6-1.83,5.33-4.45,6.4-7.32C578.48,1004.89,580,997.81,582,990.73Z"/><path class="cls-6" d="M619,1008.28c-.16,3.94,0,8.42,4.65,10.66s9.34,1.18,13.54-1.87c3.86-2.79,3.89-2.75,6.65,1.2-3,2-5.7,4.56-8.92,6-11.9,5.37-22.48-1.57-22.64-14.58-.15-12.56,7.05-23.12,17.58-25.25a19.26,19.26,0,0,1,7.8.41c4.07.93,6.77,3.64,7.16,7.93s-1.44,7.86-5.33,9.3C633,1004.48,626.29,1006.12,619,1008.28Zm1.2-5.16c5.34-1.5,10.48-2.51,15.2-4.52,1.65-.7,3.39-4.12,3-5.82s-3.42-3.41-5.43-3.61C626.5,988.54,621.19,994.27,620.2,1003.12Z"/><path class="cls-5" d="M549.21,989.74l-2.89,3.42c-.81-.39-1.54-.68-2.2-1.08-5.14-3.19-10-2.94-14,1.25-5.65,5.88-7.17,13.08-5.13,20.83,1.41,5.3,7,7.45,12.59,5,2.4-1,4.52-2.72,7.54-4.58l2.3,3.43a62.69,62.69,0,0,1-6.06,5.17c-10.42,6.87-22.15,1.54-23.86-10.74s5.45-24.64,15.7-27.67C539.43,983,544.64,984.26,549.21,989.74Z"/><path class="cls-5" d="M600.94,1024.84h-6.69c2.36-19.56,4.7-38.93,7.08-58.57H608Q604.48,995.42,600.94,1024.84Z"/><path class="cls-8" d="M317.85,468.89c.09-155.17,126.84-281.34,282.36-281,156,.3,282,126.69,281.93,282.8C882.05,625.86,755.47,752.16,600,752.14,443.35,752.12,317.76,626.05,317.85,468.89ZM757.71,283.24c-4.21,1.06-7.37,1.84-10.52,2.65a36.23,36.23,0,0,0-5.07,1.42c-2.3,1-4.39,2.89-6.74,3.21A180.73,180.73,0,0,0,666,315.45c-37.61,22.71-66.68,53.73-88.45,91.72-1.55,2.69-2.95,3.52-6.14,3.2-22.74-2.28-44.91-.21-65.69,10.14-28.58,14.22-45.95,38-57,67.16-.85,2.26-1.41,4.62-2.24,7.37,14.95,0,29.28-.55,43.55.12,25.14,1.17,49.46,6.32,72.17,17.64,37.86,18.9,58.07,50.11,62.67,91.6,1.22,11,.19,22.19.19,33.66,27.05-12.21,46.42-31.22,55.88-59.36,9.09-27,8.16-54.43,1.82-81.79-1-4.24,0-6.77,2.63-9.69a294.13,294.13,0,0,0,35.7-48.6c24.38-41.74,37.22-86.2,32-134.95-.11-1-.42-2.45.08-2.9C758.49,295.87,754.16,289,757.71,283.24ZM564.84,541.53c-48.44,23.77-75,64.78-90.21,114.62C525.19,634.11,548.24,590.42,564.84,541.53Zm31.93,24.88c-36.38,17-56.37,47.36-69.18,85C566.33,634.88,583.74,602.49,596.77,566.41ZM464.15,601.1c19.22-7.24,32.85-19.53,44.11-34.66s19.12-31.78,25.51-50.79C496.74,533.81,476.88,563.79,464.15,601.1Z"/><path class="cls-9" d="M506.51,868.74V836.68c11-2.25,14.57-.61,15,11.28.13,3.33.16,6.65.25,10,.22,7.73-2.84,10.89-10.74,11C509.74,869,508.42,868.84,506.51,868.74Z"/><path class="cls-10" d="M658.28,910.21c0-14.68,0-29.52,0-44.36,0-8.13,0-16.26.25-24.39.07-2.21-2.12-5.61,2.38-6.3,6.28-1,10.36.35,11.15,4.62a93.37,93.37,0,0,1,1.21,15.78c.22,14.1-.13,28.22.38,42.31C674.05,908.44,670.41,912,658.28,910.21Z"/><path class="cls-11" d="M733.56,999.49c-2.25,5.66-3.46,11-6.36,15.2-1.86,2.67-6.09,4.64-9.49,5.06-5.59.67-7.39-2.24-7-7.88a29.16,29.16,0,0,1,6.86-17.33c2.7-3.18,6.27-6.26,10.25-3.92C730.43,992.15,731.55,996.2,733.56,999.49Z"/><path class="cls-11" d="M582,990.73c-2,7.08-3.52,14.16-6,20.88-1.07,2.87-3.8,5.49-6.4,7.32-3.91,2.76-8.17.94-9.21-3.69C557,1000.18,569.56,987.12,582,990.73Z"/><path class="cls-10" d="M620.2,1003.12c1-8.85,6.3-14.58,12.77-14,2,.2,5.07,2,5.43,3.61s-1.35,5.12-3,5.82C630.68,1000.61,625.54,1001.62,620.2,1003.12Z"/><path class="cls-12" d="M757.71,283.24c-3.55,5.8.78,12.63-4.58,17.53-.5.45-.19,1.92-.08,2.9,5.23,48.75-7.61,93.21-32,135a294.13,294.13,0,0,1-35.7,48.6c-2.62,2.92-3.61,5.45-2.63,9.69,6.34,27.36,7.27,54.77-1.82,81.79-9.46,28.14-28.83,47.15-55.88,59.36,0-11.47,1-22.69-.19-33.66-4.6-41.49-24.81-72.7-62.67-91.6-22.71-11.32-47-16.47-72.17-17.64-14.27-.67-28.6-.12-43.55-.12.83-2.75,1.39-5.11,2.24-7.37,11.05-29.12,28.42-52.94,57-67.16,20.78-10.35,42.95-12.42,65.69-10.14,3.19.32,4.59-.51,6.14-3.2,21.77-38,50.84-69,88.45-91.72a180.73,180.73,0,0,1,69.41-24.93c2.35-.32,4.44-2.25,6.74-3.21a36.23,36.23,0,0,1,5.07-1.42C750.34,285.08,753.5,284.3,757.71,283.24ZM682.06,418.52A30.74,30.74,0,0,0,651.6,388c-16.86,0-30,13-29.93,29.54.07,17.1,13.93,30.32,31.74,30.28C668.93,447.8,682,434.41,682.06,418.52Z"/><path class="cls-13" d="M564.84,541.53c-16.6,48.89-39.65,92.58-90.21,114.62C489.87,606.31,516.4,565.3,564.84,541.53Z"/><path class="cls-14" d="M596.77,566.41c-13,36.08-30.44,68.47-69.18,85C540.4,613.77,560.39,583.41,596.77,566.41Z"/><path class="cls-14" d="M464.15,601.1c12.73-37.31,32.59-67.29,69.62-85.45-6.39,19-14.3,35.74-25.51,50.79S483.37,593.86,464.15,601.1Z"/><path class="cls-15" d="M682.06,418.52c0,15.89-13.13,29.28-28.65,29.31-17.81,0-31.67-13.18-31.74-30.28C621.61,401,634.74,388,651.6,388A30.74,30.74,0,0,1,682.06,418.52Z"/></g></g></svg>